<?xml version="1.0" encoding="UTF-8"?>
<svg width="1200pt" height="1200pt" version="1.1" viewBox="0 0 1200 1200" xmlns="http://www.w3.org/2000/svg">
 <path d="m733.4 536.68h-70.031v-70.031c0-7.7812-6.2812-14.062-14.062-14.062h-98.531c-7.7812 0-14.062 6.2812-14.062 14.062v70.031h-70.031c-7.7812 0-14.062 6.2812-14.062 14.062v98.531c0 7.7812 6.2812 14.062 14.062 14.062h70.031v70.031c0 7.7812 6.2812 14.062 14.062 14.062h98.531c7.7812 0 14.062-6.2812 14.062-14.062v-70.031h70.031c7.7812 0 14.062-6.2812 14.062-14.062v-98.531c0-7.7812-6.2812-14.062-14.062-14.062zm-14.062 98.531h-70.031c-7.7812 0-14.062 6.2812-14.062 14.062v70.031h-70.406v-70.031c0-7.7812-6.2812-14.062-14.062-14.062h-70.031v-70.406h70.031c7.7812 0 14.062-6.2812 14.062-14.062v-70.031h70.406v70.031c0 7.7812 6.2812 14.062 14.062 14.062h70.031z" fill="#c10170"/>
 <path d="m408.28 148.03v70.359c0 3.75 1.5 7.3125 4.125 9.9375l41.25 41.25c2.7188 2.7188 6.375 4.125 9.9375 4.125 3.6094 0 7.2188-1.4062 9.9375-4.125 5.4844-5.4844 5.4844-14.391 0-19.875l-37.125-37.125v-64.5c19.641-6 33.938-24.328 33.938-45.891 0-26.438-21.562-48-48-48s-48 21.562-48 48c0 21.609 14.344 39.891 33.938 45.891zm14.062-65.766c10.969 0 19.875 8.9062 19.875 19.875s-8.9062 19.875-19.875 19.875c-10.922 0-19.875-8.9062-19.875-19.875s8.9062-19.875 19.875-19.875z" fill="#c10170"/>
 <path d="m585.94 148.03v111.56c0 7.7812 6.2812 14.062 14.062 14.062s14.062-6.2812 14.062-14.062v-111.56c19.594-6 33.938-24.328 33.938-45.891 0-26.438-21.562-48-48-48-26.484 0-48 21.562-48 48 0 21.609 14.344 39.891 33.938 45.891zm14.062-65.766c10.969 0 19.875 8.9062 19.875 19.875s-8.9062 19.875-19.828 19.875h-0.09375c-10.969 0-19.875-8.9062-19.875-19.875s8.9062-19.875 19.875-19.875z" fill="#c10170"/>
 <path d="m736.4 273.66c3.6094 0 7.2188-1.4062 9.9375-4.125l41.25-41.25c2.625-2.625 4.125-6.1875 4.125-9.9375v-70.359c19.594-6 33.938-24.328 33.938-45.891 0-26.438-21.562-48-48-48-26.484 0-48 21.562-48 48 0 21.609 14.344 39.891 33.938 45.891v64.5l-37.125 37.125c-5.4844 5.4844-5.4844 14.391 0 19.875 2.7188 2.7188 6.375 4.125 9.9375 4.125zm21.375-171.52c0-10.969 8.9062-19.875 19.875-19.875s19.875 8.9062 19.875 19.875-8.9062 19.875-19.875 19.875-19.875-8.9062-19.875-19.875z" fill="#c10170"/>
 <path d="m791.72 1052v-70.359c0-3.75-1.5-7.3125-4.125-9.9375l-41.25-41.25c-5.4844-5.4844-14.391-5.4844-19.875 0s-5.4844 14.391 0 19.875l37.125 37.125v64.5c-19.641 6-33.938 24.328-33.938 45.891 0 26.438 21.562 48 48 48 26.484 0 48-21.562 48-48 0-21.609-14.344-39.891-33.938-45.891zm-14.062 65.812c-10.969 0-19.875-8.9062-19.875-19.875s8.9062-19.875 19.875-19.875 19.875 8.9062 19.875 19.875-8.9062 19.875-19.875 19.875z" fill="#c10170"/>
 <path d="m614.06 1052v-111.56c0-7.7812-6.2812-14.062-14.062-14.062s-14.062 6.2812-14.062 14.062v111.56c-19.594 6-33.938 24.328-33.938 45.891 0 26.438 21.562 48 48 48s48-21.562 48-48c0-21.609-14.344-39.891-33.938-45.891zm-14.062 65.812c-10.969 0-19.875-8.9062-19.875-19.875s8.9062-19.875 19.828-19.875h0.09375c10.969 0 19.875 8.9062 19.875 19.875s-8.9062 19.875-19.875 19.875z" fill="#c10170"/>
 <path d="m453.61 930.47-41.25 41.25c-2.625 2.625-4.125 6.1875-4.125 9.9375v70.359c-19.594 6-33.938 24.328-33.938 45.891 0 26.438 21.562 48 48 48s48-21.562 48-48c0-21.609-14.344-39.891-33.938-45.891v-64.5l37.125-37.125c5.4844-5.4844 5.4844-14.391 0-19.875s-14.391-5.4844-19.875 0zm-11.391 167.39c0 10.969-8.9062 19.875-19.875 19.875-10.922 0-19.875-8.9062-19.875-19.875s8.9062-19.875 19.875-19.875c10.922 0 19.875 8.9062 19.875 19.875z" fill="#c10170"/>
 <path d="m807.42 312.94h-414.84c-43.969 0-79.688 35.719-79.688 79.688v414.79c0 43.969 35.719 79.688 79.688 79.688h414.84c43.969 0 79.688-35.719 79.688-79.688v-414.79c0-43.969-35.719-79.688-79.688-79.688zm46.875 494.44c0 25.875-21.047 46.875-46.875 46.875h-414.84c-25.875 0-46.875-21.047-46.875-46.875v-414.79c0-25.875 21.047-46.875 46.875-46.875h414.84c25.875 0 46.875 21.047 46.875 46.875z" fill="#c10170"/>
 <path d="m249.66 726.52-37.125 37.125h-64.5c-6-19.641-24.328-33.938-45.891-33.938-26.438 0-48 21.562-48 48 0 26.484 21.562 48 48 48 21.609 0 39.891-14.344 45.891-33.938h70.359c3.75 0 7.3125-1.5 9.9375-4.125l41.25-41.25c5.4844-5.4844 5.4844-14.391 0-19.875-5.4844-5.5312-14.391-5.4844-19.875 0zm-147.52 71.016c-10.969 0-19.875-8.9062-19.875-19.875s8.9062-19.875 19.875-19.875 19.875 8.9062 19.875 19.875-8.9062 19.875-19.875 19.875z" fill="#c10170"/>
 <path d="m102.14 648c21.609 0 39.891-14.344 45.891-33.938h111.56c7.7812 0 14.062-6.2812 14.062-14.062s-6.2812-14.062-14.062-14.062h-111.56c-6-19.594-24.328-33.938-45.891-33.938-26.438 0-48 21.562-48 48s21.562 48 48 48zm0-67.875c10.969 0 19.875 8.9062 19.875 19.828v0.09375c0 10.969-8.9062 19.875-19.875 19.875s-19.875-8.9062-19.875-19.875 8.9062-19.875 19.875-19.875z" fill="#c10170"/>
 <path d="m228.32 412.4c-2.625-2.625-6.1875-4.125-9.9375-4.125h-70.359c-6-19.594-24.328-33.938-45.891-33.938-26.438 0-48 21.562-48 48s21.562 48 48 48c21.609 0 39.891-14.344 45.891-33.938h64.5l37.125 37.125c2.7188 2.7188 6.375 4.125 9.9375 4.125 3.6094 0 7.2188-1.4062 9.9375-4.125 5.4844-5.4844 5.4844-14.391 0-19.875l-41.25-41.25zm-126.19 29.812c-10.969 0-19.875-8.9062-19.875-19.875 0-10.922 8.9062-19.875 19.875-19.875s19.875 8.9062 19.875 19.875c0 10.922-8.9062 19.875-19.875 19.875z" fill="#c10170"/>
 <path d="m940.4 477.66c3.6094 0 7.2188-1.4062 9.9375-4.125l37.125-37.125h64.5c6 19.641 24.328 33.938 45.891 33.938 26.438 0 48-21.562 48-48s-21.562-48-48-48c-21.609 0-39.891 14.344-45.891 33.938h-70.359c-3.75 0-7.3125 1.5-9.9375 4.125l-41.25 41.25c-5.4844 5.4844-5.4844 14.391 0 19.875 2.7188 2.7188 6.375 4.125 9.9375 4.125zm157.45-75.188c10.969 0 19.875 8.9062 19.875 19.875 0 10.922-8.9062 19.875-19.875 19.875s-19.875-8.9062-19.875-19.875c0-10.922 8.9062-19.875 19.875-19.875z" fill="#c10170"/>
 <path d="m1097.9 552c-21.609 0-39.891 14.344-45.891 33.938h-111.56c-7.7812 0-14.062 6.2812-14.062 14.062 0 7.7344 6.2812 14.062 14.062 14.062h111.56c6 19.594 24.328 33.938 45.891 33.938 26.438 0 48-21.562 48-48 0-26.484-21.562-48-48-48zm0 67.875c-10.969 0-19.875-8.9062-19.875-19.828v-0.09375c0-10.969 8.9062-19.875 19.875-19.875s19.875 8.9062 19.875 19.875c0 10.922-8.9062 19.875-19.875 19.875z" fill="#c10170"/>
 <path d="m1097.9 729.66c-21.609 0-39.891 14.344-45.891 33.938h-64.5l-37.125-37.125c-5.4844-5.4844-14.391-5.4844-19.875 0s-5.4844 14.391 0 19.875l41.25 41.25c2.625 2.625 6.1875 4.125 9.9375 4.125h70.359c6 19.594 24.328 33.938 45.891 33.938 26.438 0 48-21.562 48-48s-21.562-48-48-48zm0 67.875c-10.969 0-19.875-8.9062-19.875-19.875s8.9062-19.875 19.875-19.875 19.875 8.9062 19.875 19.875-8.9062 19.875-19.875 19.875z" fill="#c10170"/>
</svg>
